<svg width="242.2" height="107.4" xmlns="http://www.w3.org/2000/svg" xml:space="preserve" style="enable-background:new 0 0 242.2 107.4;" version="1.1">
 <style type="text/css">.st0{fill:#0075A8;}</style>

 <g>
  <title>background</title>
  <rect fill="none" id="canvas_background" height="604" width="1278" y="-1" x="-1"/>
 </g>
 <g>
  <title>Layer 1</title>
  <g id="svg_1">
   <g id="svg_2">
    <path id="svg_3" d="m229.294116,23.6l-2.5,-14.9c-0.8,-4.8 -2.7,-8.7 -4.1,-8.7c-1.5,0 -2.7,4 -2.7,8.8l0,3.9c0,4.8 -4,8.8 -8.8,8.8l-3.9,0c-0.3,0 -0.6,0 -0.8,0l0,10.7c0.3,0 0.6,0 0.8,0l14.7,0c4.8,0 8.1,-3.9 7.3,-8.6" class="st0"/>
    <path id="svg_4" d="m194.194116,11l-23.7,0c-0.2,0 -0.4,0 -0.6,0l-24.4,0c-0.3,0 -0.6,0 -0.8,0.1l0,-2.3c0,-4.8 -1.2,-8.8 -2.7,-8.8s-3.3,3.9 -4.1,8.7l-2.5,14.9c-0.8,4.8 2.5,8.7 7.4,8.7l14.6,0c1.5,0 2.9,-0.2 4.2,-0.6c-0.5,2.5 -2.6,4.4 -5.3,4.4l-20.5,0c-3.3,0 -5.8,-3 -5.3,-6.3l2.1,-12.5c0.5,-3.3 -2,-6.3 -5.3,-6.3l-102.2,0c-2.2,0 -4,1.3 -4.9,3.2l-19.2,29.3c-0.3,0.5 -0.3,1.1 0.1,1.6l3.7,4.4c0.5,0.6 1.3,0.6 1.9,0.2l13.1,-10.3l0,62.6c0,3 2.4,5.4 5.4,5.4l29,0c3,0 5.4,-2.4 5.4,-5.4l0,-21.8c0,-3 2.4,-5.4 5.4,-5.4l72.4,0c3,0 5.4,2.4 5.4,5.4l0,21.8c0,3 2.4,5.4 5.4,5.4l29,0c3,0 5.4,-2.4 5.4,-5.4l0,-23.4l-15.4,0c-4.8,0 -8.8,-4 -8.8,-8.8l0,-15.1c0,-2.9 1.4,-5.4 3.5,-7l0,18c0,4.8 4,8.8 8.8,8.8l23.7,0c4.8,0 8.8,-4 8.8,-8.8l0,-45.8c-0.2,-5 -4.1,-8.9 -9,-8.9" class="st0"/>
   </g>
  </g>
 </g>
</svg>